<svg id="Слой_1" data-name="Слой 1" xmlns="http://www.w3.org/2000/svg" xmlns:xlink="http://www.w3.org/1999/xlink" viewBox="0 0 948.27 1010.86"><defs><style>.cls-1{fill:url(#Безымянный_градиент_57);}</style><radialGradient id="Безымянный_градиент_57" cx="526" cy="540.1" r="490.03" gradientUnits="userSpaceOnUse"><stop offset="0" stop-color="#486ee4" stop-opacity="0.8"/><stop offset="0.44" stop-color="#574bd3" stop-opacity="0.8"/><stop offset="0.7" stop-color="#6134c8" stop-opacity="0.8"/></radialGradient></defs><title>Woonder-solid-2</title><path class="cls-1" d="M394.09,739.19a12.68,12.68,0,0,0-18.22,0,13.76,13.76,0,0,0,.05,18.89,12.11,12.11,0,0,0,9,3.91,12.24,12.24,0,0,0,9.11-3.91,13.77,13.77,0,0,0,0-18.89Zm0,0a12.68,12.68,0,0,0-18.22,0,13.76,13.76,0,0,0,.05,18.89,12.11,12.11,0,0,0,9,3.91,12.24,12.24,0,0,0,9.11-3.91,13.77,13.77,0,0,0,0-18.89Zm-101.66,0a12.68,12.68,0,0,0-18.22,0,13.77,13.77,0,0,0,0,18.89,12.46,12.46,0,0,0,18.13,0,13.76,13.76,0,0,0,.05-18.89Zm101.66,0a12.68,12.68,0,0,0-18.22,0,13.76,13.76,0,0,0,.05,18.89,12.11,12.11,0,0,0,9,3.91,12.24,12.24,0,0,0,9.11-3.91,13.77,13.77,0,0,0,0-18.89Zm0,0a12.68,12.68,0,0,0-18.22,0,13.76,13.76,0,0,0,.05,18.89,12.11,12.11,0,0,0,9,3.91,12.24,12.24,0,0,0,9.11-3.91,13.77,13.77,0,0,0,0-18.89Zm-101.66,0a12.68,12.68,0,0,0-18.22,0,13.77,13.77,0,0,0,0,18.89,12.46,12.46,0,0,0,18.13,0,13.76,13.76,0,0,0,.05-18.89ZM983.79,448.68C941.92,409.17,829.52,456.94,709.26,558q-6.24,5.25-12.53,10.71,3.27-9,6.27-17.94C749.39,413,746.9,294.74,691.34,269.37c-57.16-26.11-151.81,54.57-226.64,186.35-12,21.12-23.48,43.55-34.21,67.06q-1.71,3.74-3.38,7.47-5.92-23.46-12.73-47.34-2.46-8.61-5-17.13C331.6,203.79,203.7,12.89,120.28,36.67,35.06,61,28.57,300.15,105.77,570.91s208.88,470.54,294.09,446.24l.35-.1a54.72,54.72,0,0,0,19.32-10.35,54.6,54.6,0,0,0,7.63,17.55,45.6,45.6,0,0,0,6.33,7.45c23.37,22,68.71,16.91,125.13-9.52,49-23,106.48-62,165.12-113.33,26.93-23.56,54.13-49.71,80.89-78.06C956.59,669.8,1036.8,498.72,983.79,448.68ZM316.29,781.27a46.87,46.87,0,0,1-65.9,0,44.29,44.29,0,0,1-13.68-32.65q0-19.47,13.68-32.75t33.77-13.29a43.89,43.89,0,0,1,32.3,13.56,46,46,0,0,1-.17,65.18Zm101.66,0a46.86,46.86,0,0,1-65.89,0,44.26,44.26,0,0,1-13.69-32.65q0-19.47,13.69-32.75t33.76-13.29a43.92,43.92,0,0,1,32.31,13.56,46,46,0,0,1-.18,65.18ZM524.46,793H491.22V743q0-7.65-6.31-7.64T478.69,743v50H445.45V743.59q0-17.33,11.47-29.19A37.53,37.53,0,0,1,485,702.53q19,0,30.48,13.78,9,10.76,9,30Zm107.17-47.46q0,20.36-10.66,33.15a43.6,43.6,0,0,1-15.6,11.73A46,46,0,0,1,586,794.78q-19.82,0-33.41-13.33a44.06,44.06,0,0,1-13.6-32.71q0-18.75,13.51-32.43t32-13.69q2.94,0,8.89.54v36.61a13.28,13.28,0,0,0-8.18-3.2,11.92,11.92,0,0,0-8.84,3.78,12.56,12.56,0,0,0-3.69,9.11,11.89,11.89,0,0,0,3.82,8.84A12.72,12.72,0,0,0,585.6,762q12.79,0,12.8-17.69V671.7h33.23Zm104.6,8.54H685.84a24.43,24.43,0,0,1-1.15-7,24.71,24.71,0,0,1,1.59-8.71h16.89q-1.78-9.87-11.11-9.87a12.07,12.07,0,0,0-10.13,5.29Q678,739.05,678,747.32q0,8.63,3.78,13.95a11.6,11.6,0,0,0,9.91,5.34q5,0,9.59-5l18.93,22.75a46.5,46.5,0,0,1-29.41,10.4q-19.74,0-33.15-13.24t-13.42-32.8q0-19.46,13.55-32.88t33.28-13.42q19.29,0,32.4,13.11t13.1,32.31Q736.58,749.81,736.23,754.08Zm62.38-15a13.11,13.11,0,0,0-6.31-2q-9.06,0-9.06,13.87v42H750V744.57q0-19.2,10.49-30.62t28-11.42a68.25,68.25,0,0,1,10.13,1Zm-413.67-3.73a12.12,12.12,0,0,0-9.07,3.86,13.76,13.76,0,0,0,.05,18.89,12.11,12.11,0,0,0,9,3.91,12.24,12.24,0,0,0,9.11-3.91,13.77,13.77,0,0,0,0-18.89A12.22,12.22,0,0,0,384.94,735.33Zm-101.67,0a12.11,12.11,0,0,0-9.06,3.86,13.77,13.77,0,0,0,0,18.89,12.46,12.46,0,0,0,18.13,0,13.76,13.76,0,0,0,.05-18.89A12.22,12.22,0,0,0,283.27,735.33Zm9.16,3.86a12.68,12.68,0,0,0-18.22,0,13.77,13.77,0,0,0,0,18.89,12.46,12.46,0,0,0,18.13,0,13.76,13.76,0,0,0,.05-18.89Zm101.66,0a12.68,12.68,0,0,0-18.22,0,13.76,13.76,0,0,0,.05,18.89,12.11,12.11,0,0,0,9,3.91,12.24,12.24,0,0,0,9.11-3.91,13.77,13.77,0,0,0,0-18.89Zm0,0a12.68,12.68,0,0,0-18.22,0,13.76,13.76,0,0,0,.05,18.89,12.11,12.11,0,0,0,9,3.91,12.24,12.24,0,0,0,9.11-3.91,13.77,13.77,0,0,0,0-18.89Zm-101.66,0a12.68,12.68,0,0,0-18.22,0,13.77,13.77,0,0,0,0,18.89,12.46,12.46,0,0,0,18.13,0,13.76,13.76,0,0,0,.05-18.89Z" transform="translate(-51.87 -34.67)"/></svg>