<svg id="Слой_1" data-name="Слой 1" xmlns="http://www.w3.org/2000/svg" xmlns:xlink="http://www.w3.org/1999/xlink" viewBox="0 0 948.27 1010.86"><defs><style>.cls-1{fill:url(#Безымянный_градиент_46);}.cls-2{fill:#fff;}</style><radialGradient id="Безымянный_градиент_46" cx="517.56" cy="540.1" r="490.03" gradientUnits="userSpaceOnUse"><stop offset="0" stop-color="#486ee4" stop-opacity="0.9"/><stop offset="0.18" stop-color="#4e61dd" stop-opacity="0.92"/><stop offset="0.49" stop-color="#5d3dcc" stop-opacity="0.99"/><stop offset="0.55" stop-color="#6134c8"/><stop offset="0.62" stop-color="#5e33c3" stop-opacity="0.99"/><stop offset="0.7" stop-color="#572fb6" stop-opacity="0.98"/><stop offset="0.79" stop-color="#4a29a0" stop-opacity="0.95"/><stop offset="0.88" stop-color="#382081" stop-opacity="0.91"/><stop offset="0.98" stop-color="#21155a" stop-opacity="0.86"/><stop offset="1" stop-color="#1b1250" stop-opacity="0.85"/></radialGradient></defs><title>Woonder-invert</title><path class="cls-1" d="M796.19,830.79c-26.76,28.35-54,54.5-80.89,78.06-58.64,51.28-116.07,90.36-165.12,113.33-56.42,26.43-101.76,31.57-125.13,9.52a45.6,45.6,0,0,1-6.33-7.45,54.6,54.6,0,0,1-7.63-17.55,54.72,54.72,0,0,1-19.32,10.35l-.35.1c-85.21,24.3-216.88-175.48-294.09-446.24S26.62,61,111.84,36.67C195.26,12.89,323.16,203.79,401,465.78q2.54,8.52,5,17.13,6.8,23.86,12.73,47.34,1.66-3.74,3.38-7.47c10.73-23.51,22.21-45.94,34.21-67.06C531.09,323.94,625.74,243.26,682.9,269.37,738.46,294.74,741,413,694.56,550.81q-3,8.93-6.27,17.94,6.29-5.46,12.53-10.71c120.26-101.1,232.66-148.87,274.53-109.36C1028.36,498.72,948.15,669.8,796.19,830.79Z" transform="translate(-43.42 -34.67)"/><path class="cls-2" d="M284,739.19a12.68,12.68,0,0,0-18.22,0,13.77,13.77,0,0,0,0,18.89,12.46,12.46,0,0,0,18.13,0,13.76,13.76,0,0,0,.05-18.89Zm101.66,0a12.68,12.68,0,0,0-18.22,0,13.76,13.76,0,0,0,.05,18.89,12.11,12.11,0,0,0,9,3.91,12.24,12.24,0,0,0,9.11-3.91,13.77,13.77,0,0,0,0-18.89Zm0,0a12.68,12.68,0,0,0-18.22,0,13.76,13.76,0,0,0,.05,18.89,12.11,12.11,0,0,0,9,3.91,12.24,12.24,0,0,0,9.11-3.91,13.77,13.77,0,0,0,0-18.89Zm-101.66,0a12.68,12.68,0,0,0-18.22,0,13.77,13.77,0,0,0,0,18.89,12.46,12.46,0,0,0,18.13,0,13.76,13.76,0,0,0,.05-18.89Zm0,0a12.68,12.68,0,0,0-18.22,0,13.77,13.77,0,0,0,0,18.89,12.46,12.46,0,0,0,18.13,0,13.76,13.76,0,0,0,.05-18.89Zm101.66,0a12.68,12.68,0,0,0-18.22,0,13.76,13.76,0,0,0,.05,18.89,12.11,12.11,0,0,0,9,3.91,12.24,12.24,0,0,0,9.11-3.91,13.77,13.77,0,0,0,0-18.89Zm0,0a12.68,12.68,0,0,0-18.22,0,13.76,13.76,0,0,0,.05,18.89,12.11,12.11,0,0,0,9,3.91,12.24,12.24,0,0,0,9.11-3.91,13.77,13.77,0,0,0,0-18.89Zm-101.66,0a12.68,12.68,0,0,0-18.22,0,13.77,13.77,0,0,0,0,18.89,12.46,12.46,0,0,0,18.13,0,13.76,13.76,0,0,0,.05-18.89ZM975.35,448.68C933.48,409.17,821.08,456.94,700.82,558q-6.24,5.25-12.53,10.71,3.27-9,6.27-17.94C741,413,738.46,294.74,682.9,269.37c-57.16-26.11-151.81,54.57-226.64,186.35-12,21.12-23.48,43.55-34.21,67.06q-1.71,3.74-3.38,7.47-5.93-23.46-12.73-47.34-2.46-8.61-5-17.13c-77.79-262-205.69-452.89-289.11-429.11C26.62,61,20.13,300.15,97.33,570.91s208.88,470.54,294.09,446.24l.35-.1a54.72,54.72,0,0,0,19.32-10.35,54.6,54.6,0,0,0,7.63,17.55,45.6,45.6,0,0,0,6.33,7.45c23.37,22,68.71,16.91,125.13-9.52,49.05-23,106.48-62,165.12-113.33,26.93-23.56,54.13-49.71,80.89-78.06C948.15,669.8,1028.36,498.72,975.35,448.68ZM307.85,781.27a46.87,46.87,0,0,1-65.9,0,44.29,44.29,0,0,1-13.68-32.65q0-19.47,13.68-32.75t33.77-13.29A43.89,43.89,0,0,1,308,716.09a46,46,0,0,1-.17,65.18Zm101.66,0a46.86,46.86,0,0,1-65.89,0,44.26,44.26,0,0,1-13.69-32.65q0-19.47,13.69-32.75t33.76-13.29a43.92,43.92,0,0,1,32.31,13.56,46,46,0,0,1-.18,65.18ZM516,793H482.78V743q0-7.65-6.31-7.64T470.25,743v50H437V743.59q0-17.33,11.47-29.19a37.53,37.53,0,0,1,28.08-11.87q19,0,30.48,13.78,9,10.76,9,30Zm107.17-47.46q0,20.36-10.66,33.15a43.6,43.6,0,0,1-15.6,11.73,46,46,0,0,1-19.42,4.36q-19.82,0-33.41-13.33a44.06,44.06,0,0,1-13.6-32.71q0-18.75,13.51-32.43t32-13.69q2.94,0,8.89.54v36.61a13.28,13.28,0,0,0-8.18-3.2,11.92,11.92,0,0,0-8.84,3.78,12.56,12.56,0,0,0-3.69,9.11A11.89,11.89,0,0,0,568,758.3a12.72,12.72,0,0,0,9.16,3.69Q590,762,590,744.3V671.7h33.23Zm104.6,8.54H677.4a24.43,24.43,0,0,1-1.15-7,24.71,24.71,0,0,1,1.59-8.71h16.89q-1.79-9.87-11.11-9.87a12.07,12.07,0,0,0-10.13,5.29q-3.91,5.28-3.91,13.55,0,8.63,3.78,13.95a11.6,11.6,0,0,0,9.91,5.34q5,0,9.59-5l18.93,22.75a46.5,46.5,0,0,1-29.41,10.4q-19.74,0-33.15-13.24t-13.42-32.8q0-19.46,13.55-32.88t33.28-13.42q19.29,0,32.4,13.11t13.1,32.31Q728.14,749.81,727.79,754.08Zm62.38-15a13.11,13.11,0,0,0-6.31-2q-9.06,0-9.06,13.87v42H741.56V744.57q0-19.2,10.49-30.62t28-11.42a68.25,68.25,0,0,1,10.13,1ZM376.5,735.33a12.12,12.12,0,0,0-9.07,3.86,13.76,13.76,0,0,0,.05,18.89,12.11,12.11,0,0,0,9,3.91,12.24,12.24,0,0,0,9.11-3.91,13.77,13.77,0,0,0,0-18.89A12.22,12.22,0,0,0,376.5,735.33Zm-101.67,0a12.11,12.11,0,0,0-9.06,3.86,13.77,13.77,0,0,0,0,18.89,12.46,12.46,0,0,0,18.13,0,13.76,13.76,0,0,0,.05-18.89A12.22,12.22,0,0,0,274.83,735.33Zm9.16,3.86a12.68,12.68,0,0,0-18.22,0,13.77,13.77,0,0,0,0,18.89,12.46,12.46,0,0,0,18.13,0,13.76,13.76,0,0,0,.05-18.89Zm101.66,0a12.68,12.68,0,0,0-18.22,0,13.76,13.76,0,0,0,.05,18.89,12.11,12.11,0,0,0,9,3.91,12.24,12.24,0,0,0,9.11-3.91,13.77,13.77,0,0,0,0-18.89Zm0,0a12.68,12.68,0,0,0-18.22,0,13.76,13.76,0,0,0,.05,18.89,12.11,12.11,0,0,0,9,3.91,12.24,12.24,0,0,0,9.11-3.91,13.77,13.77,0,0,0,0-18.89Zm-101.66,0a12.68,12.68,0,0,0-18.22,0,13.77,13.77,0,0,0,0,18.89,12.46,12.46,0,0,0,18.13,0,13.76,13.76,0,0,0,.05-18.89Zm101.66,0a12.68,12.68,0,0,0-18.22,0,13.76,13.76,0,0,0,.05,18.89,12.11,12.11,0,0,0,9,3.91,12.24,12.24,0,0,0,9.11-3.91,13.77,13.77,0,0,0,0-18.89Zm0,0a12.68,12.68,0,0,0-18.22,0,13.76,13.76,0,0,0,.05,18.89,12.11,12.11,0,0,0,9,3.91,12.24,12.24,0,0,0,9.11-3.91,13.77,13.77,0,0,0,0-18.89Z" transform="translate(-43.42 -34.67)"/></svg>