<?xml version="1.0" encoding="utf-8"?>
<!-- Generator: Adobe Illustrator 22.1.0, SVG Export Plug-In . SVG Version: 6.00 Build 0)  -->
<svg version="1.1" id="Слой_1" xmlns="http://www.w3.org/2000/svg" xmlns:xlink="http://www.w3.org/1999/xlink" x="0px" y="0px"
	 viewBox="0 0 1202 865" style="enable-background:new 0 0 1202 865;" xml:space="preserve">
<style type="text/css">
	.st0{fill:url(#SVGID_1_);}
	.st1{fill:#FFFFFF;}
</style>
<linearGradient id="SVGID_1_" gradientUnits="userSpaceOnUse" x1="410.98" y1="572" x2="1158" y2="572">
	<stop  offset="0" style="stop-color:#486EE4;stop-opacity:0.8"/>
	<stop  offset="0.3589" style="stop-color:#5452D6;stop-opacity:0.8"/>
	<stop  offset="0.3927" style="stop-color:#554FD5;stop-opacity:0.8"/>
	<stop  offset="0.7" style="stop-color:#6134C8;stop-opacity:0.8"/>
</linearGradient>
<path class="st0" d="M1158,438L675,751.8l-61.5,33.8c-1.9,1.1-3.9,2-5.9,2.9c-31.2,16.8-71.6,14.7-99.9-3.6l-56.1-58.6L411,683.9
	l1.8-1.2l199.4-129.5c14.1,0.2,28.4-2.4,41.4-8c3.8-1.6,7.4-3.5,10.9-5.6l6.9-4.2l26-14.3l301.1-165.4
	c39.2-21.5,92.7-12.7,118.8,19.6l27.2,33.7C1151.8,418,1156.3,427.9,1158,438z"/>
<g>
	<g>
		<path class="st1" d="M738.8,622c8.5,13,7.1,27.3-2.9,33.8c-10.2,6.7-23.7,1.9-31.9-10.7c-7.1-10.9-9.3-25.8,3.1-33.9
			C719.5,603.1,732.5,612.3,738.8,622z"/>
		<path class="st1" d="M804.1,579.4c-6.4-9.7-19.3-18.9-31.7-10.8c-12.4,8.1-10.3,23-3.1,33.9c8.2,12.6,21.7,17.4,31.9,10.7
			C811.2,606.6,812.6,592.3,804.1,579.4z M804.1,579.4c-6.4-9.7-19.3-18.9-31.7-10.8c-12.4,8.1-10.3,23-3.1,33.9
			c8.2,12.6,21.7,17.4,31.9,10.7C811.2,606.6,812.6,592.3,804.1,579.4z M804.1,579.4c-6.4-9.7-19.3-18.9-31.7-10.8
			c-12.4,8.1-10.3,23-3.1,33.9c8.2,12.6,21.7,17.4,31.9,10.7C811.2,606.6,812.6,592.3,804.1,579.4z M938.8,504.6
			c-0.6-1.7-1.4-3.2-2.5-4.8l-6.5-10c-0.9-1.3-2.1-3-3.4-4.1c-5.9-5.6-15.2-7.4-23-2.3c-10.8,7.1-11,20.8-2.7,33.5
			c7.6,11.6,19.6,17.5,30.9,10.2C938.6,522.5,942,513.7,938.8,504.6z M938.8,504.6c-0.6-1.7-1.4-3.2-2.5-4.8l-6.5-10
			c-0.9-1.3-2.1-3-3.4-4.1c-5.9-5.6-15.2-7.4-23-2.3c-10.8,7.1-11,20.8-2.7,33.5c7.6,11.6,19.6,17.5,30.9,10.2
			C938.6,522.5,942,513.7,938.8,504.6z M804.1,579.4c-6.4-9.7-19.3-18.9-31.7-10.8c-12.4,8.1-10.3,23-3.1,33.9
			c8.2,12.6,21.7,17.4,31.9,10.7C811.2,606.6,812.6,592.3,804.1,579.4z M804.1,579.4c-6.4-9.7-19.3-18.9-31.7-10.8
			c-12.4,8.1-10.3,23-3.1,33.9c8.2,12.6,21.7,17.4,31.9,10.7C811.2,606.6,812.6,592.3,804.1,579.4z M938.8,504.6
			c-0.6-1.7-1.4-3.2-2.5-4.8l-6.5-10c-0.9-1.3-2.1-3-3.4-4.1c-5.9-5.6-15.2-7.4-23-2.3c-10.8,7.1-11,20.8-2.7,33.5
			c7.6,11.6,19.6,17.5,30.9,10.2C938.6,522.5,942,513.7,938.8,504.6z M938.8,504.6c-0.6-1.7-1.4-3.2-2.5-4.8l-6.5-10
			c-0.9-1.3-2.1-3-3.4-4.1c-5.9-5.6-15.2-7.4-23-2.3c-10.8,7.1-11,20.8-2.7,33.5c7.6,11.6,19.6,17.5,30.9,10.2
			C938.6,522.5,942,513.7,938.8,504.6z M804.1,579.4c-6.4-9.7-19.3-18.9-31.7-10.8c-12.4,8.1-10.3,23-3.1,33.9
			c8.2,12.6,21.7,17.4,31.9,10.7C811.2,606.6,812.6,592.3,804.1,579.4z M804.1,579.4c-6.4-9.7-19.3-18.9-31.7-10.8
			c-12.4,8.1-10.3,23-3.1,33.9c8.2,12.6,21.7,17.4,31.9,10.7C811.2,606.6,812.6,592.3,804.1,579.4z M938.8,504.6
			c-0.6-1.7-1.4-3.2-2.5-4.8l-6.5-10c-0.9-1.3-2.1-3-3.4-4.1c-5.9-5.6-15.2-7.4-23-2.3c-10.8,7.1-11,20.8-2.7,33.5
			c7.6,11.6,19.6,17.5,30.9,10.2C938.6,522.5,942,513.7,938.8,504.6z M968.3,440c-10.6,6.9-8.9,19.7-4.9,27.5l30.5-20
			C989.7,440.8,980.1,432.3,968.3,440z M968.3,440c-10.6,6.9-8.9,19.7-4.9,27.5l30.5-20C989.7,440.8,980.1,432.3,968.3,440z
			 M938.8,504.6c-0.6-1.7-1.4-3.2-2.5-4.8l-6.5-10c-0.9-1.3-2.1-3-3.4-4.1c-5.9-5.6-15.2-7.4-23-2.3c-10.8,7.1-11,20.8-2.7,33.5
			c7.6,11.6,19.6,17.5,30.9,10.2C938.6,522.5,942,513.7,938.8,504.6z M804.1,579.4c-6.4-9.7-19.3-18.9-31.7-10.8
			c-12.4,8.1-10.3,23-3.1,33.9c8.2,12.6,21.7,17.4,31.9,10.7C811.2,606.6,812.6,592.3,804.1,579.4z M804.1,579.4
			c-6.4-9.7-19.3-18.9-31.7-10.8c-12.4,8.1-10.3,23-3.1,33.9c8.2,12.6,21.7,17.4,31.9,10.7C811.2,606.6,812.6,592.3,804.1,579.4z
			 M938.8,504.6c-0.6-1.7-1.4-3.2-2.5-4.8l-6.5-10c-0.9-1.3-2.1-3-3.4-4.1c-5.9-5.6-15.2-7.4-23-2.3c-10.8,7.1-11,20.8-2.7,33.5
			c7.6,11.6,19.6,17.5,30.9,10.2C938.6,522.5,942,513.7,938.8,504.6z M968.3,440c-10.6,6.9-8.9,19.7-4.9,27.5l30.5-20
			C989.7,440.8,980.1,432.3,968.3,440z M804.1,579.4c-6.4-9.7-19.3-18.9-31.7-10.8c-12.4,8.1-10.3,23-3.1,33.9
			c8.2,12.6,21.7,17.4,31.9,10.7C811.2,606.6,812.6,592.3,804.1,579.4z M938.8,504.6c-0.6-1.7-1.4-3.2-2.5-4.8l-6.5-10
			c-0.9-1.3-2.1-3-3.4-4.1c-5.9-5.6-15.2-7.4-23-2.3c-10.8,7.1-11,20.8-2.7,33.5c7.6,11.6,19.6,17.5,30.9,10.2
			C938.6,522.5,942,513.7,938.8,504.6z M968.3,440c-10.6,6.9-8.9,19.7-4.9,27.5l30.5-20C989.7,440.8,980.1,432.3,968.3,440z
			 M1186.8,393.8c-1.8-12.7-6.4-25.2-14-36.5l-28.3-42.4c-27.2-40.7-82.7-51.8-123.4-24.7L708.4,498.6l-27,18l-7.2,5.3
			c-3.7,2.7-7.5,5-11.4,7.1c-13.5,7.1-28.4,10.4-43,10.1c-23.9-0.5-47.3-10.5-64.2-29.1c-2.1-2.3-4-4.7-5.9-7.2l-80.2-109.2
			l-3.9-5.3c-1.9-2.5-3.6-5.1-5.1-7.8L220.2,53c-29-39.5-85-48-124.4-19.1L54.7,64.2c-39.5,29-48,85-19.1,124.4l377.2,513.7l40.4,55
			l41.5,56.6c4.9,6.6,10.5,12.4,16.7,17.2c29.4,23.1,71.4,25.8,103.8,4.6c2.1-1.1,4.1-2.4,6.1-3.7l63.9-42.6l463-308.7
			C1177.5,461,1191.5,426.7,1186.8,393.8z M1010.5,403.6l7.7,11.1l0.5-0.3c-2.4-9.4,0.7-18.4,7.7-23c1.2-0.8,2.1-1.2,3.2-1.6
			l6.5,9.9c-1.2,0.5-2.4,1-3.8,2c-7.4,4.8-8.9,13.8-5.3,22.6c0.7,1.6,1.5,3.4,2.7,5.2l20,30.7l-10.3,6.8l-25.9-39.6
			c-4.4-6.8-8.4-12.5-12.2-17.6L1010.5,403.6z M964.3,432c18.8-12.3,34.6,1,41.5,11.6c1.4,2.1,2.3,4,2.8,5.1l-40.4,26.4
			c9.5,14,22.3,13.9,32.8,7.1c7.5-4.9,11.2-9.1,14-13.4l6.7,6.3c-2.6,4.1-7.7,10.1-16.8,16.1c-17.7,11.6-35.9,6.8-47.3-10.5
			C946.2,463.3,947.5,442.9,964.3,432z M896,476.6c8.8-5.7,17.5-5.5,23.1-2.5l0.2-0.1l-22.4-34.4l10.5-6.8l45.4,69.5
			c3.3,5.1,7.3,10.9,10.2,14.5l-9.4,6.1l-7-9.7l-0.2,0.2c1,8.5-2.8,18-12.2,24.1c-13.9,9.1-32.3,4.3-43.7-13.2
			C877.8,505.3,882,485.7,896,476.6z M818.1,529.4l6.8,9.1l0.2-0.2c-0.7-7.3,2.4-17,12-23.2c8-5.2,23.4-8.5,36.3,11.2l22.4,34.4
			l-10.5,6.8l-21.7-33.2c-6.1-9.3-14.5-14.8-24.4-8.3c-6.9,4.5-9.1,12.9-7,19.9c0.4,1.6,1.3,3.6,2.5,5.3l22.6,34.6l-10.5,6.8
			l-27.4-42c-3.9-6-7.2-10.7-10.6-15.3L818.1,529.4z M767.5,560.5c16.5-10.8,35.5-6.1,47,11.5c13.9,21.3,5.2,40.2-8.7,49.3
			c-15.6,10.2-35,6.6-46.9-11.6C746.4,590.5,751.6,570.9,767.5,560.5z M702.3,603.2c16.5-10.8,35.6-6.1,47,11.5
			c13.9,21.3,5.2,40.2-8.7,49.3c-15.6,10.2-35,6.6-46.9-11.6C681.1,633.1,686.3,613.6,702.3,603.2z M993.9,447.5
			c-4.2-6.7-13.8-15.2-25.6-7.5c-10.6,6.9-8.9,19.7-4.9,27.5L993.9,447.5z M931.6,527.1c7-4.6,10.4-13.4,7.2-22.5
			c-0.6-1.7-1.4-3.2-2.5-4.8l-6.5-10c-0.9-1.3-2.1-3-3.4-4.1c-5.9-5.6-15.2-7.4-23-2.3c-10.8,7.1-11,20.8-2.7,33.5
			C908.3,528.6,920.3,534.5,931.6,527.1z M801.2,613.1c10-6.5,11.3-20.8,2.9-33.8c-6.4-9.7-19.3-18.9-31.7-10.8
			c-12.4,8.1-10.3,23-3.1,33.9C777.5,615.1,791,619.8,801.2,613.1z M804.1,579.4c-6.4-9.7-19.3-18.9-31.7-10.8
			c-12.4,8.1-10.3,23-3.1,33.9c8.2,12.6,21.7,17.4,31.9,10.7C811.2,606.6,812.6,592.3,804.1,579.4z M938.8,504.6
			c-0.6-1.7-1.4-3.2-2.5-4.8l-6.5-10c-0.9-1.3-2.1-3-3.4-4.1c-5.9-5.6-15.2-7.4-23-2.3c-10.8,7.1-11,20.8-2.7,33.5
			c7.6,11.6,19.6,17.5,30.9,10.2C938.6,522.5,942,513.7,938.8,504.6z M968.3,440c-10.6,6.9-8.9,19.7-4.9,27.5l30.5-20
			C989.7,440.8,980.1,432.3,968.3,440z M968.3,440c-10.6,6.9-8.9,19.7-4.9,27.5l30.5-20C989.7,440.8,980.1,432.3,968.3,440z
			 M938.8,504.6c-0.6-1.7-1.4-3.2-2.5-4.8l-6.5-10c-0.9-1.3-2.1-3-3.4-4.1c-5.9-5.6-15.2-7.4-23-2.3c-10.8,7.1-11,20.8-2.7,33.5
			c7.6,11.6,19.6,17.5,30.9,10.2C938.6,522.5,942,513.7,938.8,504.6z M804.1,579.4c-6.4-9.7-19.3-18.9-31.7-10.8
			c-12.4,8.1-10.3,23-3.1,33.9c8.2,12.6,21.7,17.4,31.9,10.7C811.2,606.6,812.6,592.3,804.1,579.4z M804.1,579.4
			c-6.4-9.7-19.3-18.9-31.7-10.8c-12.4,8.1-10.3,23-3.1,33.9c8.2,12.6,21.7,17.4,31.9,10.7C811.2,606.6,812.6,592.3,804.1,579.4z
			 M938.8,504.6c-0.6-1.7-1.4-3.2-2.5-4.8l-6.5-10c-0.9-1.3-2.1-3-3.4-4.1c-5.9-5.6-15.2-7.4-23-2.3c-10.8,7.1-11,20.8-2.7,33.5
			c7.6,11.6,19.6,17.5,30.9,10.2C938.6,522.5,942,513.7,938.8,504.6z M938.8,504.6c-0.6-1.7-1.4-3.2-2.5-4.8l-6.5-10
			c-0.9-1.3-2.1-3-3.4-4.1c-5.9-5.6-15.2-7.4-23-2.3c-10.8,7.1-11,20.8-2.7,33.5c7.6,11.6,19.6,17.5,30.9,10.2
			C938.6,522.5,942,513.7,938.8,504.6z M804.1,579.4c-6.4-9.7-19.3-18.9-31.7-10.8c-12.4,8.1-10.3,23-3.1,33.9
			c8.2,12.6,21.7,17.4,31.9,10.7C811.2,606.6,812.6,592.3,804.1,579.4z M804.1,579.4c-6.4-9.7-19.3-18.9-31.7-10.8
			c-12.4,8.1-10.3,23-3.1,33.9c8.2,12.6,21.7,17.4,31.9,10.7C811.2,606.6,812.6,592.3,804.1,579.4z M938.8,504.6
			c-0.6-1.7-1.4-3.2-2.5-4.8l-6.5-10c-0.9-1.3-2.1-3-3.4-4.1c-5.9-5.6-15.2-7.4-23-2.3c-10.8,7.1-11,20.8-2.7,33.5
			c7.6,11.6,19.6,17.5,30.9,10.2C938.6,522.5,942,513.7,938.8,504.6z M938.8,504.6c-0.6-1.7-1.4-3.2-2.5-4.8l-6.5-10
			c-0.9-1.3-2.1-3-3.4-4.1c-5.9-5.6-15.2-7.4-23-2.3c-10.8,7.1-11,20.8-2.7,33.5c7.6,11.6,19.6,17.5,30.9,10.2
			C938.6,522.5,942,513.7,938.8,504.6z M804.1,579.4c-6.4-9.7-19.3-18.9-31.7-10.8c-12.4,8.1-10.3,23-3.1,33.9
			c8.2,12.6,21.7,17.4,31.9,10.7C811.2,606.6,812.6,592.3,804.1,579.4z M804.1,579.4c-6.4-9.7-19.3-18.9-31.7-10.8
			c-12.4,8.1-10.3,23-3.1,33.9c8.2,12.6,21.7,17.4,31.9,10.7C811.2,606.6,812.6,592.3,804.1,579.4z M804.1,579.4
			c-6.4-9.7-19.3-18.9-31.7-10.8c-12.4,8.1-10.3,23-3.1,33.9c8.2,12.6,21.7,17.4,31.9,10.7C811.2,606.6,812.6,592.3,804.1,579.4z"/>
	</g>
	<path class="st1" d="M742.3,385.7l-42.1,28.7c-40.5,27.6-96.1,17-123.7-23.4l-28.7-42.1c-27.6-40.5-17-96.1,23.4-123.7l42.1-28.7
		c40.5-27.6,96.1-17,123.7,23.4l28.7,42.1C793.3,302.5,782.7,358.2,742.3,385.7z"/>
</g>
</svg>
