<?xml version="1.0" encoding="utf-8"?>
<!-- Generator: Adobe Illustrator 22.1.0, SVG Export Plug-In . SVG Version: 6.00 Build 0)  -->
<svg version="1.1" id="Слой_1" xmlns="http://www.w3.org/2000/svg" xmlns:xlink="http://www.w3.org/1999/xlink" x="0px" y="0px"
	 viewBox="0 0 1202 865" style="enable-background:new 0 0 1202 865;" xml:space="preserve">
<style type="text/css">
	.st0{fill:url(#SVGID_1_);}
	.st1{fill:url(#SVGID_2_);}
	.st2{fill:url(#SVGID_3_);}
</style>
<linearGradient id="SVGID_1_" gradientUnits="userSpaceOnUse" x1="698.2677" y1="633.4454" x2="744.3995" y2="633.4454">
	<stop  offset="0" style="stop-color:#486EE4;stop-opacity:0.8"/>
	<stop  offset="0.3589" style="stop-color:#5452D6;stop-opacity:0.8"/>
	<stop  offset="0.3927" style="stop-color:#554FD5;stop-opacity:0.8"/>
	<stop  offset="0.7" style="stop-color:#6134C8;stop-opacity:0.8"/>
</linearGradient>
<path class="st0" d="M738.8,622c8.5,13,7.1,27.3-2.9,33.8c-10.2,6.7-23.7,1.9-31.9-10.7c-7.1-10.9-9.3-25.8,3.1-33.9
	C719.5,603.1,732.5,612.3,738.8,622z"/>
<linearGradient id="SVGID_2_" gradientUnits="userSpaceOnUse" x1="18.4831" y1="433.4395" x2="1187.6714" y2="433.4395">
	<stop  offset="0" style="stop-color:#486EE4;stop-opacity:0.8"/>
	<stop  offset="0.3589" style="stop-color:#5452D6;stop-opacity:0.8"/>
	<stop  offset="0.3927" style="stop-color:#554FD5;stop-opacity:0.8"/>
	<stop  offset="0.7" style="stop-color:#6134C8;stop-opacity:0.8"/>
</linearGradient>
<path class="st1" d="M804.1,579.4c-6.4-9.7-19.3-18.9-31.7-10.8c-12.4,8.1-10.3,23-3.1,33.9c8.2,12.6,21.7,17.4,31.9,10.7
	C811.2,606.6,812.5,592.3,804.1,579.4z M804.1,579.4c-6.4-9.7-19.3-18.9-31.7-10.8c-12.4,8.1-10.3,23-3.1,33.9
	c8.2,12.6,21.7,17.4,31.9,10.7C811.2,606.6,812.5,592.3,804.1,579.4z M804.1,579.4c-6.4-9.7-19.3-18.9-31.7-10.8
	c-12.4,8.1-10.3,23-3.1,33.9c8.2,12.6,21.7,17.4,31.9,10.7C811.2,606.6,812.5,592.3,804.1,579.4z M938.8,504.6
	c-0.6-1.7-1.4-3.2-2.5-4.8l-6.5-10c-0.9-1.3-2.1-3-3.4-4.1c-5.9-5.6-15.2-7.4-23-2.3c-10.8,7.1-11,20.8-2.7,33.5
	c7.6,11.6,19.6,17.5,30.9,10.2C938.6,522.5,942,513.7,938.8,504.6z M938.8,504.6c-0.6-1.7-1.4-3.2-2.5-4.8l-6.5-10
	c-0.9-1.3-2.1-3-3.4-4.1c-5.9-5.6-15.2-7.4-23-2.3c-10.8,7.1-11,20.8-2.7,33.5c7.6,11.6,19.6,17.5,30.9,10.2
	C938.6,522.5,942,513.7,938.8,504.6z M804.1,579.4c-6.4-9.7-19.3-18.9-31.7-10.8c-12.4,8.1-10.3,23-3.1,33.9
	c8.2,12.6,21.7,17.4,31.9,10.7C811.2,606.6,812.5,592.3,804.1,579.4z M804.1,579.4c-6.4-9.7-19.3-18.9-31.7-10.8
	c-12.4,8.1-10.3,23-3.1,33.9c8.2,12.6,21.7,17.4,31.9,10.7C811.2,606.6,812.5,592.3,804.1,579.4z M938.8,504.6
	c-0.6-1.7-1.4-3.2-2.5-4.8l-6.5-10c-0.9-1.3-2.1-3-3.4-4.1c-5.9-5.6-15.2-7.4-23-2.3c-10.8,7.1-11,20.8-2.7,33.5
	c7.6,11.6,19.6,17.5,30.9,10.2C938.6,522.5,942,513.7,938.8,504.6z M938.8,504.6c-0.6-1.7-1.4-3.2-2.5-4.8l-6.5-10
	c-0.9-1.3-2.1-3-3.4-4.1c-5.9-5.6-15.2-7.4-23-2.3c-10.8,7.1-11,20.8-2.7,33.5c7.6,11.6,19.6,17.5,30.9,10.2
	C938.6,522.5,942,513.7,938.8,504.6z M804.1,579.4c-6.4-9.7-19.3-18.9-31.7-10.8c-12.4,8.1-10.3,23-3.1,33.9
	c8.2,12.6,21.7,17.4,31.9,10.7C811.2,606.6,812.5,592.3,804.1,579.4z M804.1,579.4c-6.4-9.7-19.3-18.9-31.7-10.8
	c-12.4,8.1-10.3,23-3.1,33.9c8.2,12.6,21.7,17.4,31.9,10.7C811.2,606.6,812.5,592.3,804.1,579.4z M938.8,504.6
	c-0.6-1.7-1.4-3.2-2.5-4.8l-6.5-10c-0.9-1.3-2.1-3-3.4-4.1c-5.9-5.6-15.2-7.4-23-2.3c-10.8,7.1-11,20.8-2.7,33.5
	c7.6,11.6,19.6,17.5,30.9,10.2C938.6,522.5,942,513.7,938.8,504.6z M968.3,440c-10.6,6.9-8.9,19.7-4.9,27.5l30.5-20
	C989.7,440.8,980.1,432.3,968.3,440z M968.3,440c-10.6,6.9-8.9,19.7-4.9,27.5l30.5-20C989.7,440.8,980.1,432.3,968.3,440z
	 M938.8,504.6c-0.6-1.7-1.4-3.2-2.5-4.8l-6.5-10c-0.9-1.3-2.1-3-3.4-4.1c-5.9-5.6-15.2-7.4-23-2.3c-10.8,7.1-11,20.8-2.7,33.5
	c7.6,11.6,19.6,17.5,30.9,10.2C938.6,522.5,942,513.7,938.8,504.6z M804.1,579.4c-6.4-9.7-19.3-18.9-31.7-10.8
	c-12.4,8.1-10.3,23-3.1,33.9c8.2,12.6,21.7,17.4,31.9,10.7C811.2,606.6,812.5,592.3,804.1,579.4z M1172.8,357.2l-28.3-42.4
	c-27.2-40.7-82.7-51.8-123.4-24.7L708.4,498.6l-27,18l-7.2,5.3c-3.7,2.7-7.5,5-11.4,7.1c-35.6,18.6-80,11-107.2-19
	c-2.1-2.3-4-4.7-5.9-7.2l-80.2-109.2l-3.9-5.3c-1.9-2.5-3.6-5.1-5.1-7.8L220.2,53c-29-39.5-85-48-124.4-19.1L54.7,64.2
	c-39.5,29-48,85-19.1,124.4l459.1,625.3c28,38.2,81.3,47.4,120.4,21.8c2.1-1.1,4.1-2.4,6.1-3.7l526.9-351.3
	C1188.9,453.5,1200,397.9,1172.8,357.2z M740.6,664c-15.6,10.2-35,6.6-46.9-11.6c-12.6-19.3-7.4-38.8,8.6-49.2
	c16.5-10.8,35.5-6.1,47,11.5C763.2,636,754.5,654.9,740.6,664z M805.9,621.3c-15.6,10.2-35,6.6-46.9-11.6
	c-12.6-19.3-7.4-38.8,8.6-49.2c16.5-10.8,35.5-6.1,47,11.5C828.5,593.3,819.8,612.2,805.9,621.3z M885.4,567.5l-21.7-33.2
	c-6.1-9.3-14.5-14.8-24.4-8.3c-6.9,4.5-9.1,12.9-7,19.9c0.4,1.6,1.3,3.6,2.5,5.3l22.6,34.6l-10.5,6.8l-27.4-42
	c-3.9-6-7.2-10.7-10.7-15.3l9.3-6l6.8,9.1l0.2-0.2c-0.7-7.3,2.4-17,12-23.2c8-5.2,23.4-8.5,36.3,11.2l22.4,34.4L885.4,567.5z
	 M953.6,522.9l-7-9.7l-0.2,0.2c1,8.5-2.8,18-12.2,24.1c-13.9,9.1-32.3,4.3-43.7-13.2c-12.6-19.1-8.4-38.6,5.6-47.8
	c8.8-5.7,17.5-5.5,23.1-2.5l0.2-0.1l-22.4-34.4l10.5-6.8l45.4,69.5c3.3,5.1,7.3,10.9,10.2,14.5L953.6,522.9z M1004.8,491.2
	c-17.7,11.6-35.9,6.8-47.3-10.5c-11.3-17.4-10-37.7,6.7-48.7c18.8-12.3,34.6,1,41.5,11.6c1.4,2.1,2.3,4,2.8,5.1l-40.4,26.4
	c9.5,14,22.3,13.9,32.8,7.1c7.5-4.9,11.2-9.1,14-13.4l6.7,6.3C1019,479.2,1013.9,485.2,1004.8,491.2z M1039.4,466.8l-25.9-39.6
	c-4.4-6.8-8.4-12.5-12.2-17.6l9.2-6l7.7,11.1l0.5-0.3c-2.4-9.4,0.7-18.4,7.7-23c1.2-0.8,2.1-1.2,3.2-1.6l6.4,9.9
	c-1.2,0.5-2.4,1-3.8,2c-7.4,4.8-9,13.8-5.3,22.6c0.7,1.6,1.5,3.4,2.7,5.2l20,30.7L1039.4,466.8z M968.3,440
	c-10.6,6.9-8.9,19.7-4.9,27.5l30.5-20C989.7,440.8,980.1,432.3,968.3,440z M936.3,499.8l-6.5-10c-0.9-1.3-2.1-3-3.4-4.1
	c-5.9-5.6-15.2-7.4-23-2.3c-10.8,7.1-11,20.8-2.7,33.5c7.6,11.6,19.6,17.5,30.9,10.2c7-4.6,10.4-13.4,7.2-22.5
	C938.2,503,937.4,501.5,936.3,499.8z M772.4,568.5c-12.4,8.1-10.3,23-3.1,33.9c8.2,12.6,21.7,17.4,31.9,10.7
	c10-6.5,11.3-20.8,2.9-33.8C797.7,569.6,784.8,560.5,772.4,568.5z M804.1,579.4c-6.4-9.7-19.3-18.9-31.7-10.8
	c-12.4,8.1-10.3,23-3.1,33.9c8.2,12.6,21.7,17.4,31.9,10.7C811.2,606.6,812.5,592.3,804.1,579.4z M938.8,504.6
	c-0.6-1.7-1.4-3.2-2.5-4.8l-6.5-10c-0.9-1.3-2.1-3-3.4-4.1c-5.9-5.6-15.2-7.4-23-2.3c-10.8,7.1-11,20.8-2.7,33.5
	c7.6,11.6,19.6,17.5,30.9,10.2C938.6,522.5,942,513.7,938.8,504.6z M938.8,504.6c-0.6-1.7-1.4-3.2-2.5-4.8l-6.5-10
	c-0.9-1.3-2.1-3-3.4-4.1c-5.9-5.6-15.2-7.4-23-2.3c-10.8,7.1-11,20.8-2.7,33.5c7.6,11.6,19.6,17.5,30.9,10.2
	C938.6,522.5,942,513.7,938.8,504.6z M804.1,579.4c-6.4-9.7-19.3-18.9-31.7-10.8c-12.4,8.1-10.3,23-3.1,33.9
	c8.2,12.6,21.7,17.4,31.9,10.7C811.2,606.6,812.5,592.3,804.1,579.4z M804.1,579.4c-6.4-9.7-19.3-18.9-31.7-10.8
	c-12.4,8.1-10.3,23-3.1,33.9c8.2,12.6,21.7,17.4,31.9,10.7C811.2,606.6,812.5,592.3,804.1,579.4z M938.8,504.6
	c-0.6-1.7-1.4-3.2-2.5-4.8l-6.5-10c-0.9-1.3-2.1-3-3.4-4.1c-5.9-5.6-15.2-7.4-23-2.3c-10.8,7.1-11,20.8-2.7,33.5
	c7.6,11.6,19.6,17.5,30.9,10.2C938.6,522.5,942,513.7,938.8,504.6z M938.8,504.6c-0.6-1.7-1.4-3.2-2.5-4.8l-6.5-10
	c-0.9-1.3-2.1-3-3.4-4.1c-5.9-5.6-15.2-7.4-23-2.3c-10.8,7.1-11,20.8-2.7,33.5c7.6,11.6,19.6,17.5,30.9,10.2
	C938.6,522.5,942,513.7,938.8,504.6z M804.1,579.4c-6.4-9.7-19.3-18.9-31.7-10.8c-12.4,8.1-10.3,23-3.1,33.9
	c8.2,12.6,21.7,17.4,31.9,10.7C811.2,606.6,812.5,592.3,804.1,579.4z M804.1,579.4c-6.4-9.7-19.3-18.9-31.7-10.8
	c-12.4,8.1-10.3,23-3.1,33.9c8.2,12.6,21.7,17.4,31.9,10.7C811.2,606.6,812.5,592.3,804.1,579.4z M804.1,579.4
	c-6.4-9.7-19.3-18.9-31.7-10.8c-12.4,8.1-10.3,23-3.1,33.9c8.2,12.6,21.7,17.4,31.9,10.7C811.2,606.6,812.5,592.3,804.1,579.4z"/>
<linearGradient id="SVGID_3_" gradientUnits="userSpaceOnUse" x1="532.3984" y1="305.4709" x2="781.0892" y2="305.4709">
	<stop  offset="0" style="stop-color:#486EE4;stop-opacity:0.8"/>
	<stop  offset="0.3589" style="stop-color:#5452D6;stop-opacity:0.8"/>
	<stop  offset="0.3927" style="stop-color:#554FD5;stop-opacity:0.8"/>
	<stop  offset="0.7" style="stop-color:#6134C8;stop-opacity:0.8"/>
</linearGradient>
<path class="st2" d="M742.3,385.7l-42.1,28.7c-40.5,27.6-96.1,17-123.7-23.4l-28.7-42.1c-27.6-40.5-17-96.1,23.4-123.7l42.1-28.7
	c40.5-27.6,96.1-17,123.7,23.4l28.7,42.1C793.3,302.5,782.7,358.2,742.3,385.7z"/>
</svg>
