<svg id="Слой_1" data-name="Слой 1" xmlns="http://www.w3.org/2000/svg" xmlns:xlink="http://www.w3.org/1999/xlink" viewBox="0 0 948.27 1010.86"><defs><style>.cls-1{fill:url(#Безымянный_градиент_57);}.cls-2{fill:#646fbc;}</style><radialGradient id="Безымянный_градиент_57" cx="526" cy="540.1" r="488.04" gradientUnits="userSpaceOnUse"><stop offset="0" stop-color="#486ee4" stop-opacity="0.8"/><stop offset="0.44" stop-color="#574bd3" stop-opacity="0.8"/><stop offset="0.7" stop-color="#6134c8" stop-opacity="0.8"/></radialGradient></defs><title>Woonder-solid-2</title><path class="cls-1" d="M474.37,1043.53c-16.87,0-30.16-4.47-39.5-13.28a43.75,43.75,0,0,1-6.05-7.12,52.72,52.72,0,0,1-7.35-16.92l-.76-3.05-2.44,2a53.09,53.09,0,0,1-18.62,10l-.12,0-.16,0a51.17,51.17,0,0,1-14,1.94c-40.6,0-91.25-45.19-142.63-127.26-52-83-99.92-196.5-135-319.53C70.41,439.6,51.39,312.12,54.12,211.42c1.33-48.84,7.7-88.67,19-118.39,11.5-30.36,27.56-48.68,47.75-54.44a51.3,51.3,0,0,1,14-1.92c39.61,0,89.07,43.3,139.26,121.93,50.66,79.36,98,188.66,133.4,307.75,1.62,5.47,3.25,11.06,5,17.11,4.54,15.94,8.82,31.85,12.71,47.28l1.42,5.6,2.35-5.28q1.67-3.72,3.37-7.45c10.52-23.05,22-45.56,34.13-66.9,32-56.42,68.09-104.25,104.26-138.33s69.68-51.9,97.28-51.9a53.8,53.8,0,0,1,22.53,4.71c53.33,24.35,57.69,139.07,10.6,279-1.89,5.65-3.94,11.5-6.26,17.9l-2.63,7.25,5.82-5.06c4.08-3.54,8.28-7.13,12.51-10.69C802,482.72,888.83,436.84,942.91,436.84c16.87,0,30.16,4.48,39.51,13.29,12.49,11.79,17.57,30.81,15.12,56.54-2.41,25.24-11.92,55.73-28.27,90.61-33.76,72-92.74,154.43-166.09,232.14-26.18,27.73-53.35,54-80.75,77.92-57.85,50.59-114.79,89.68-164.65,113-32.82,15.37-60.88,23.16-83.41,23.16ZM691.08,700.44c-13.62,0-25.29,4.71-34.68,14a46.62,46.62,0,0,0-14.15,34.3c0,13.53,4.72,25,14,34.22s20.91,13.82,34.55,13.82A48.66,48.66,0,0,0,721.47,786l1.62-1.27L701.38,758.6l-1.54,1.67c-2.67,2.88-5.41,4.34-8.13,4.34a9.62,9.62,0,0,1-8.27-4.49c-2.27-3.2-3.42-7.5-3.42-12.8,0-5.05,1.19-9.21,3.52-12.36a10.11,10.11,0,0,1,8.52-4.48c4.43,0,7.19,1.88,8.55,5.87H684.9l-.49,1.3a25.33,25.33,0,0,0-.48,17l.43,1.42h53.72l.15-1.84c.24-3,.35-5.06.35-6.38,0-13.29-4.6-24.63-13.68-33.72S704.43,700.44,691.08,700.44Zm-106.64.18c-12.8,0-24.05,4.81-33.41,14.28s-14.09,20.85-14.09,33.84a46.2,46.2,0,0,0,14.2,34.14c9.41,9.22,21.13,13.9,34.81,13.9a48.31,48.31,0,0,0,20.26-4.54A45.85,45.85,0,0,0,622.51,780c7.38-8.85,11.12-20.44,11.12-34.43V669.7H596.4v74.6c0,14.06-6.16,15.69-10.8,15.69a10.69,10.69,0,0,1-7.77-3.13,9.86,9.86,0,0,1-3.21-7.4,10.54,10.54,0,0,1,3.12-7.71,9.91,9.91,0,0,1,7.41-3.18,11.27,11.27,0,0,1,7,2.78l3.23,2.52V701.33l-1.82-.16C589.45,700.8,586.48,700.62,584.44,700.62Zm-198.62-.09c-13.86,0-25.69,4.66-35.15,13.86s-14.3,20.7-14.3,34.18a46.37,46.37,0,0,0,14.29,34.07,48.85,48.85,0,0,0,68.7.05,48.06,48.06,0,0,0-33.54-82.16Zm-101.66,0c-13.87,0-25.7,4.66-35.16,13.86s-14.29,20.71-14.29,34.18A46.42,46.42,0,0,0,249,782.64a48.87,48.87,0,0,0,68.71.05,48,48,0,0,0,.18-68A46,46,0,0,0,284.16,700.53Zm504.32,0c-12.19,0-22.1,4.06-29.46,12.07s-11,18.72-11,32V795h37.24V751c0-11.87,5.13-11.87,7.06-11.87a11.26,11.26,0,0,1,5.33,1.7l3,1.68V701.8l-1.69-.27A70.14,70.14,0,0,0,788.48,700.53Zm-303.57,36.8c2.24,0,4.31.68,4.31,5.64v52h37.24V746.26c0-13.22-3.17-23.73-9.44-31.23-8-9.62-18.77-14.5-32-14.5A39.63,39.63,0,0,0,455.48,713c-8,8.27-12,18.55-12,30.58V795h37.24V743C480.69,738,482.72,737.33,484.91,737.33ZM384.94,760a10.11,10.11,0,0,1-7.58-3.3,11.75,11.75,0,0,1-.05-16.11,10.68,10.68,0,0,1,15.34,0,11.76,11.76,0,0,1,0,16.11A10.21,10.21,0,0,1,384.94,760Zm-101.67,0a10.11,10.11,0,0,1-7.58-3.3,11.76,11.76,0,0,1,0-16.11,10.09,10.09,0,0,1,7.62-3.25,10.2,10.2,0,0,1,7.72,3.25,11.75,11.75,0,0,1-.05,16.11A10.21,10.21,0,0,1,283.27,760Z" transform="translate(-51.87 -34.67)"/><path class="cls-2" d="M134.82,38.67c19.39,0,41.27,10.63,65,31.6,23.54,20.78,47.95,50.86,72.56,89.41C323,238.89,370.25,348,405.56,466.92c1.62,5.44,3.24,11,5,17.09,4.53,15.92,8.8,31.81,12.69,47.22l2.83,11.2,4.71-10.55c1-2.22,2.09-4.65,3.36-7.44,10.5-23,21.95-45.45,34.05-66.74C500.12,401.45,536,353.78,572.07,319.84c35.66-33.61,68.83-51.37,95.91-51.36a51.77,51.77,0,0,1,21.7,4.53c12.67,5.78,22.69,17,29.78,33.25s11.07,37,11.95,61.8c1.77,50.08-9.66,114.53-32.2,181.48-1.88,5.61-3.92,11.45-6.24,17.85l-5.26,14.49,11.65-10.11c4-3.52,8.25-7.11,12.48-10.67,91.06-76.55,177.44-122.26,231.07-122.26,16.34,0,29.18,4.29,38.14,12.75,12,11.34,16.89,29.81,14.5,54.89s-11.84,55.28-28.1,89.95C933.79,668.23,874.93,750.48,801.72,828c-26.13,27.69-53.25,53.86-80.61,77.8-57.71,50.47-114.48,89.44-164.18,112.72-32.55,15.24-60.32,23-82.56,23-16.34,0-29.17-4.28-38.12-12.73a41.68,41.68,0,0,1-5.78-6.8,51,51,0,0,1-7.06-16.27l-1.52-6.11-4.89,4a50.92,50.92,0,0,1-17.91,9.61l-.12,0h-.08l-.06,0h-.06a48.9,48.9,0,0,1-13.44,1.85c-19.85,0-42.27-11.12-66.64-33-24.15-21.73-49.15-53.12-74.29-93.28-51.88-82.87-99.75-196.16-134.78-319-18.82-66-33-131.21-42.17-193.76C58.6,315.68,54.79,260.31,56.12,211.48,57.44,162.86,63.77,123.25,75,93.74,86.21,64,101.83,46.09,121.38,40.52a48.84,48.84,0,0,1,13.44-1.85M594.4,699.24l-.71-.06c-4.12-.38-7.15-.56-9.25-.56-13.36,0-25.08,5-34.83,14.88s-14.67,21.71-14.67,35.24a48.14,48.14,0,0,0,14.8,35.57c9.8,9.6,22,14.47,36.21,14.47A50.13,50.13,0,0,0,607,794.05a47.69,47.69,0,0,0,17-12.8c7.68-9.22,11.58-21.24,11.58-35.71V667.7H594.4v31.54m96.42,99.54a50.64,50.64,0,0,0,31.88-11.25l3.24-2.54-2.63-3.17-18.93-22.75-.83-1h36.37l.3-3.68c.25-3.07.36-5.15.36-6.54,0-13.84-4.8-25.66-14.27-35.14S705,698.44,691.08,698.44c-14.17,0-26.31,4.9-36.09,14.58a48.57,48.57,0,0,0-14.74,35.72c0,14.09,4.92,26.08,14.61,35.65s21.77,14.39,36,14.39M746,797h41.24V751c0-9.87,3.55-9.87,5.06-9.87a9.38,9.38,0,0,1,4.35,1.45l6,3.35V700.09l-3.38-.53a71.55,71.55,0,0,0-10.75-1c-12.78,0-23.18,4.28-30.93,12.72S746,730.81,746,744.57V797m-304.55,0h41.24V743c0-3.64,1-3.64,2.22-3.64s2.31,0,2.31,3.64v54h41.24V746.26c0-13.7-3.33-24.64-9.9-32.51-8.4-10.1-19.69-15.22-33.56-15.22a41.53,41.53,0,0,0-30.95,13.09c-8.36,8.65-12.6,19.41-12.6,32V797M385,798.78a49.16,49.16,0,0,0,35.75-14.67,50.06,50.06,0,0,0-34.95-85.58c-14.4,0-26.69,4.85-36.54,14.42s-14.91,21.58-14.91,35.62a48.3,48.3,0,0,0,14.88,35.49A49.17,49.17,0,0,0,385,798.78m-101.66,0a49.15,49.15,0,0,0,35.75-14.67,50.07,50.07,0,0,0-34.95-85.58c-14.4,0-26.7,4.85-36.55,14.42s-14.9,21.59-14.9,35.62a48.31,48.31,0,0,0,14.87,35.49,49.18,49.18,0,0,0,35.78,14.72m408.7-66.3c2.34,0,4,.58,5.2,1.87H686.8a7.76,7.76,0,0,1,5.26-1.87m-307.12,6.85a8.17,8.17,0,0,1,6.27,2.64,9.77,9.77,0,0,1,0,13.33,8.23,8.23,0,0,1-6.24,2.69,8.06,8.06,0,0,1-6.14-2.69,9.75,9.75,0,0,1-.05-13.33,8.12,8.12,0,0,1,6.19-2.64m-101.67,0a8.22,8.22,0,0,1,6.28,2.63,9.77,9.77,0,0,1,0,13.34,8.23,8.23,0,0,1-6.24,2.69,8.12,8.12,0,0,1-6.14-2.69,9.76,9.76,0,0,1,0-13.33,8.1,8.1,0,0,1,6.18-2.64m301.88,1.24a9.4,9.4,0,0,1,5.72,2.35l3.51,2.74C594,758,588.15,758,585.6,758a8.7,8.7,0,0,1-6.37-2.56,7.87,7.87,0,0,1-2.61-6,8.51,8.51,0,0,1,2.56-6.32,7.9,7.9,0,0,1,6-2.57m114,17.51-.77.83c-2.28,2.45-4.52,3.7-6.66,3.7a7.68,7.68,0,0,1-6.65-3.66c-.19-.28-.38-.57-.56-.87h14.64M134.82,34.67a52.89,52.89,0,0,0-14.54,2C35.06,61,28.57,300.15,105.77,570.91c72.94,255.79,194.5,448.24,279.56,448.24a52.81,52.81,0,0,0,14.53-2l.35-.1a54.72,54.72,0,0,0,19.32-10.35,54.6,54.6,0,0,0,7.63,17.55,45.6,45.6,0,0,0,6.33,7.45c9.94,9.37,23.84,13.83,40.88,13.83,23,0,51.81-8.15,84.25-23.35,49-23,106.48-62,165.12-113.33,26.93-23.56,54.13-49.71,80.89-78.06,152-161,232.17-332.07,179.16-382.11-9.93-9.37-23.84-13.84-40.88-13.84-54.77,0-141.92,46.09-233.65,123.2q-6.24,5.25-12.53,10.71,3.27-9,6.27-17.94C749.39,413,746.9,294.74,691.34,269.37A55.62,55.62,0,0,0,668,264.48c-57.41,0-137.91,76.12-203.28,191.24-12,21.12-23.48,43.55-34.21,67.06q-1.71,3.74-3.38,7.47-5.92-23.46-12.73-47.34-2.46-8.61-5-17.13C336,218.58,218,34.67,134.82,34.67ZM585.6,762q12.79,0,12.8-17.69V671.7h33.23v73.84q0,20.36-10.66,33.15a43.6,43.6,0,0,1-15.6,11.73A46,46,0,0,1,586,794.78q-19.82,0-33.41-13.33a44.06,44.06,0,0,1-13.6-32.71q0-18.75,13.51-32.43t32-13.69q2.94,0,8.89.54v36.61a13.28,13.28,0,0,0-8.18-3.2,11.92,11.92,0,0,0-8.84,3.78,12.56,12.56,0,0,0-3.69,9.11,11.89,11.89,0,0,0,3.82,8.84A12.72,12.72,0,0,0,585.6,762Zm105.22,32.79q-19.74,0-33.15-13.24t-13.42-32.8q0-19.46,13.55-32.88t33.28-13.42q19.29,0,32.4,13.11t13.1,32.31q0,1.95-.35,6.22H685.84a24.43,24.43,0,0,1-1.15-7,24.71,24.71,0,0,1,1.59-8.71h16.89q-1.78-9.87-11.11-9.87a12.07,12.07,0,0,0-10.13,5.29Q678,739.05,678,747.32q0,8.63,3.78,13.95a11.6,11.6,0,0,0,9.91,5.34q5,0,9.59-5l18.93,22.75a46.5,46.5,0,0,1-29.41,10.4ZM750,793V744.57q0-19.2,10.49-30.62t28-11.42a68.25,68.25,0,0,1,10.13,1v35.55a13.11,13.11,0,0,0-6.31-2q-9.06,0-9.06,13.87v42Zm-304.55,0V743.59q0-17.33,11.47-29.19A37.53,37.53,0,0,1,485,702.53q19,0,30.48,13.78,9,10.76,9,30V793H491.22V743q0-7.65-6.31-7.64T478.69,743v50ZM385,794.78a45.13,45.13,0,0,1-33-13.56,44.26,44.26,0,0,1-13.69-32.65q0-19.47,13.69-32.75t33.76-13.29a43.92,43.92,0,0,1,32.31,13.56,46,46,0,0,1-.18,65.18A45.07,45.07,0,0,1,385,794.78Zm-101.66,0a45.14,45.14,0,0,1-33-13.56,44.29,44.29,0,0,1-13.68-32.65q0-19.47,13.68-32.75t33.77-13.29a43.89,43.89,0,0,1,32.3,13.56,46,46,0,0,1-.17,65.18,45.09,45.09,0,0,1-32.93,13.51Zm101.58-59.45a12.12,12.12,0,0,0-9.07,3.86,13.11,13.11,0,0,0-3.73,9.47,13.11,13.11,0,0,1,3.73-9.47,12.68,12.68,0,0,1,18.22,0,13.11,13.11,0,0,1,3.73,9.47,13.11,13.11,0,0,0-3.73-9.47,12.22,12.22,0,0,0-9.15-3.86Zm0,0a12.12,12.12,0,0,0-9.07,3.86,13.11,13.11,0,0,0-3.73,9.47,13.11,13.11,0,0,1,3.73-9.47,12.68,12.68,0,0,1,18.22,0,13.11,13.11,0,0,1,3.73,9.47,13.11,13.11,0,0,0-3.73-9.47,12.22,12.22,0,0,0-9.15-3.86Zm0,0a12.12,12.12,0,0,0-9.07,3.86,13.11,13.11,0,0,0-3.73,9.47,13.11,13.11,0,0,1,3.73-9.47,12.68,12.68,0,0,1,18.22,0,13.11,13.11,0,0,1,3.73,9.47,13.11,13.11,0,0,0-3.73-9.47,12.22,12.22,0,0,0-9.15-3.86Zm0,0a12.12,12.12,0,0,0-9.07,3.86,13.76,13.76,0,0,0,.05,18.89,12.11,12.11,0,0,0,9,3.91,12.24,12.24,0,0,0,9.11-3.91,13.77,13.77,0,0,0,0-18.89,12.22,12.22,0,0,0-9.15-3.86Zm-101.67,0a12.11,12.11,0,0,0-9.06,3.86,13.11,13.11,0,0,0-3.73,9.47,13.11,13.11,0,0,1,3.73-9.47,12.68,12.68,0,0,1,18.22,0,13.15,13.15,0,0,1,3.73,9.47,13.15,13.15,0,0,0-3.73-9.47,12.22,12.22,0,0,0-9.16-3.86Zm0,0a12.11,12.11,0,0,0-9.06,3.86,13.11,13.11,0,0,0-3.73,9.47,13.11,13.11,0,0,1,3.73-9.47,12.68,12.68,0,0,1,18.22,0,13.15,13.15,0,0,1,3.73,9.47,13.15,13.15,0,0,0-3.73-9.47,12.22,12.22,0,0,0-9.16-3.86Zm0,0a12.11,12.11,0,0,0-9.06,3.86,13.77,13.77,0,0,0,0,18.89,12.46,12.46,0,0,0,18.13,0,13.76,13.76,0,0,0,.05-18.89,12.22,12.22,0,0,0-9.16-3.86Zm114.55,13.33a13.11,13.11,0,0,1-3.77,9.42,12.24,12.24,0,0,1-9.11,3.91,12.11,12.11,0,0,1-9-3.91,13.08,13.08,0,0,1-3.78-9.42,13.08,13.08,0,0,0,3.78,9.42,12.11,12.11,0,0,0,9,3.91,12.24,12.24,0,0,0,9.11-3.91,13.11,13.11,0,0,0,3.77-9.42Zm0,0a13.11,13.11,0,0,1-3.77,9.42,12.24,12.24,0,0,1-9.11,3.91,12.11,12.11,0,0,1-9-3.91,13.08,13.08,0,0,1-3.78-9.42,13.08,13.08,0,0,0,3.78,9.42,12.11,12.11,0,0,0,9,3.91,12.24,12.24,0,0,0,9.11-3.91,13.11,13.11,0,0,0,3.77-9.42Zm0,0a13.11,13.11,0,0,1-3.77,9.42,12.24,12.24,0,0,1-9.11,3.91,12.11,12.11,0,0,1-9-3.91,13.08,13.08,0,0,1-3.78-9.42,13.08,13.08,0,0,0,3.78,9.42,12.11,12.11,0,0,0,9,3.91,12.24,12.24,0,0,0,9.11-3.91,13.11,13.11,0,0,0,3.77-9.42Zm-101.66,0a13.08,13.08,0,0,1-3.78,9.42,12.46,12.46,0,0,1-18.13,0,13.07,13.07,0,0,1-3.77-9.42,13.07,13.07,0,0,0,3.77,9.42,12.46,12.46,0,0,0,18.13,0,13.08,13.08,0,0,0,3.78-9.42Zm0,0a13.08,13.08,0,0,1-3.78,9.42,12.46,12.46,0,0,1-18.13,0,13.07,13.07,0,0,1-3.77-9.42,13.07,13.07,0,0,0,3.77,9.42,12.46,12.46,0,0,0,18.13,0,13.08,13.08,0,0,0,3.78-9.42Z" transform="translate(-51.87 -34.67)"/></svg>